<?xml version="1.0" standalone="no"?>
<!DOCTYPE svg PUBLIC "-//W3C//DTD SVG 20010904//EN"
 "http://www.w3.org/TR/2001/REC-SVG-20010904/DTD/svg10.dtd">
<svg version="1.0" xmlns="http://www.w3.org/2000/svg"
 width="1024.000000pt" height="1024.000000pt" viewBox="0 0 1024.000000 1024.000000"
 preserveAspectRatio="xMidYMid meet">

<g transform="translate(0.000000,1024.000000) scale(0.100000,-0.100000)"
fill="#000000" stroke="none">
<path d="M4905 9053 c-526 -43 -829 -111 -1250 -280 -346 -138 -742 -373
-1060 -629 -362 -290 -772 -799 -987 -1224 -302 -596 -440 -1168 -441 -1820 0
-348 40 -643 134 -988 87 -315 162 -515 290 -767 152 -301 235 -432 444 -702
204 -263 362 -418 674 -661 399 -311 964 -587 1436 -703 143 -35 416 -83 570
-101 147 -17 647 -16 795 1 166 18 457 68 569 97 126 32 427 134 566 190 221
91 568 281 770 423 134 94 423 342 545 467 134 139 360 417 458 565 345 521
556 1093 639 1734 25 197 25 707 0 915 -63 509 -240 1058 -472 1460 -296 516
-707 981 -1130 1277 -228 160 -569 347 -851 466 -431 181 -1007 291 -1503 285
-86 -1 -174 -3 -196 -5z m-765 -2036 c129 -24 254 -60 345 -102 302 -137 538
-458 600 -813 76 -443 -42 -901 -304 -1175 -152 -159 -346 -262 -601 -319 -85
-18 -136 -21 -472 -25 l-378 -5 0 -704 0 -704 -22 -5 c-13 -3 -167 -4 -343 -3
l-320 3 -3 1925 c-1 1059 0 1931 3 1938 4 11 135 12 702 9 604 -3 711 -6 793
-20z m2651 8 c343 -45 583 -155 767 -350 149 -158 243 -365 281 -622 6 -39 11
-136 11 -215 0 -207 -29 -362 -98 -526 -98 -233 -298 -433 -552 -550 l-79 -37
379 -769 c209 -423 380 -773 380 -777 0 -17 -49 -19 -381 -19 l-349 0 -16 24
c-13 21 -200 412 -615 1286 l-78 165 -180 3 -181 2 -2 -737 -3 -738 -329 -3
c-234 -2 -333 1 -342 9 -12 10 -14 319 -14 1934 0 1057 3 1925 7 1928 3 4 295
7 647 7 495 0 665 -4 747 -15z"/>
<path d="M3330 5810 l0 -602 313 5 c341 5 383 10 503 68 194 92 297 306 281
584 -17 288 -140 451 -392 521 -48 14 -123 18 -382 21 l-323 5 0 -602z"/>
<path d="M6080 5810 l0 -603 286 7 c323 8 402 18 513 71 188 89 291 279 291
535 0 247 -90 424 -259 510 -119 59 -201 71 -533 77 l-298 5 0 -602z"/>
</g>
</svg>
